<svg width="81" height="80" viewBox="0 0 81 80" fill="none" xmlns="http://www.w3.org/2000/svg">
<path d="M16.9805 57.6246C16.9805 58.7345 17.7062 59.4602 18.8161 59.4602H61.5699C62.7225 59.4602 63.683 58.5638 63.683 57.3684C63.683 56.1731 62.7225 55.2766 61.5699 55.2766H21.7617C21.3135 55.2766 21.1641 55.1272 21.1641 54.679V43.0674L30.2143 37.8165C30.94 38.4996 31.9005 38.9265 32.9891 38.9265C33.9069 38.9265 34.7821 38.6063 35.4651 38.0727L39.478 41.4879C39.3285 41.9148 39.2432 42.3843 39.2432 42.8539C39.2432 45.1165 41.0575 46.9308 43.2987 46.9308C45.5399 46.9308 47.3756 45.1165 47.3756 42.8539C47.3756 42.6832 47.3542 42.4911 47.3329 42.3203L57.1088 36.4718C57.7492 36.9201 58.5389 37.1762 59.3714 37.1762C61.6126 37.1762 63.4482 35.3405 63.4482 33.0993C63.4482 30.8581 61.6126 29.0225 59.3714 29.0225C57.1302 29.0225 55.2945 30.8581 55.2945 33.0993C55.2945 33.3768 55.3372 33.6543 55.3799 33.9104L45.796 39.6522C45.113 39.1186 44.2379 38.7984 43.2987 38.7984C42.637 38.7984 41.9967 38.9478 41.4203 39.2467L37.002 35.49C37.0233 35.2765 37.0446 35.0631 37.0446 34.8496C37.0446 32.6084 35.2303 30.7727 32.9891 30.7727C30.7266 30.7727 28.9122 32.6084 28.9122 34.8496C28.9122 34.9136 28.9122 34.9777 28.9122 35.0417L21.1641 39.5241V21.1249C21.1641 19.9509 20.2676 19.0117 19.0723 19.0117C17.877 19.0117 16.9805 19.9509 16.9805 21.1249V57.6246Z" fill="white"/>
</svg>
