<svg width="81" height="80" viewBox="0 0 81 80" fill="none" xmlns="http://www.w3.org/2000/svg">
<g clip-path="url(#clip0_281_2809)">
<path d="M40.9989 64.9509C55.1869 64.9509 66.9392 53.2238 66.9392 39.0106C66.9392 24.8225 55.1869 13.0703 40.9738 13.0703C26.7857 13.0703 15.0586 24.8225 15.0586 39.0106C15.0586 53.2238 26.8108 64.9509 40.9989 64.9509ZM40.9989 59.8532C29.4475 59.8532 20.1814 50.5619 20.1814 39.0106C20.1814 27.4593 29.4224 18.1931 40.9738 18.1931C52.5251 18.1931 61.8164 27.4593 61.8415 39.0106C61.8415 50.5619 52.5502 59.8532 40.9989 59.8532ZM30.1507 47.8248H51.8471C53.2031 47.8248 54.0318 47.0965 54.0318 45.9916C54.0318 44.5603 52.726 43.3549 51.4955 42.1496C50.5664 41.2455 50.3655 39.4124 50.24 37.8052C50.2148 36.9766 50.1646 36.1981 50.0642 35.4196C49.361 35.7461 48.5826 35.8968 47.779 35.8968C44.1881 35.8968 41.1747 32.9336 41.1747 29.3175C41.1747 27.635 41.8025 26.1535 42.8571 24.9983C42.3047 24.697 41.6769 24.5212 40.9989 24.5212C39.0151 24.5212 37.5586 25.9023 36.981 27.6853C33.4654 28.966 31.9838 32.4816 31.808 37.5039C31.6574 39.2617 31.4565 41.2204 30.5022 42.1496C29.2969 43.38 27.966 44.5603 27.966 45.9916C27.966 47.0965 28.7946 47.8248 30.1507 47.8248ZM47.779 34.0134C50.3153 34.0134 52.4498 31.904 52.4498 29.3175C52.4498 26.731 50.3153 24.6468 47.779 24.6468C45.1925 24.6468 43.058 26.731 43.058 29.3175C43.058 31.904 45.1925 34.0134 47.779 34.0134ZM40.9989 53.6758C43.3845 53.6758 45.1423 51.9933 45.293 49.9593H36.7048C36.8555 51.9933 38.6133 53.6758 40.9989 53.6758Z" fill="white"/>
</g>
<defs>
<clipPath id="clip0_281_2809">
<rect width="80" height="80" fill="white" transform="translate(0.5)"/>
</clipPath>
</defs>
</svg>
