<svg width="81" height="80" viewBox="0 0 81 80" fill="none" xmlns="http://www.w3.org/2000/svg">
<path fill-rule="evenodd" clip-rule="evenodd" d="M53.5147 30.3607H36.2545C35.8489 30.3607 35.52 30.6892 35.52 31.0945V56.5961C35.52 57.0014 35.8489 57.3299 36.2545 57.3299H53.5147C53.9204 57.3299 54.2492 57.0014 54.2492 56.5961V31.0945C54.2492 30.6892 53.9204 30.3607 53.5147 30.3607ZM36.2545 26.6914C33.8207 26.6914 31.8477 28.6628 31.8477 31.0945V56.5961C31.8477 59.0279 33.8207 60.9992 36.2545 60.9992H53.5147C55.9486 60.9992 57.9216 59.0278 57.9216 56.5961V31.0945C57.9216 28.6628 55.9486 26.6914 53.5147 26.6914H36.2545Z" fill="white"/>
<path fill-rule="evenodd" clip-rule="evenodd" d="M44.8233 21.6693H27.5631C27.1575 21.6693 26.8286 21.9978 26.8286 22.4031V47.9047C26.8286 48.31 27.1575 48.6385 27.5631 48.6385H29.7665V52.3078H27.5631C25.1293 52.3078 23.1562 50.3364 23.1562 47.9047V22.4031C23.1562 19.9714 25.1293 18 27.5631 18H44.8233C47.2572 18 49.2302 19.9714 49.2302 22.4031V24.6047H45.5578V22.4031C45.5578 21.9978 45.229 21.6693 44.8233 21.6693Z" fill="white"/>
</svg>
