<svg width="80" height="80" viewBox="0 0 80 80" fill="none" xmlns="http://www.w3.org/2000/svg">
<path d="M39.9732 64.9777C54.2115 64.9777 65.9637 53.2254 65.9637 39.0123C65.9637 24.7991 54.1864 13.0469 39.9481 13.0469C25.7349 13.0469 14.0078 24.7991 14.0078 39.0123C14.0078 53.2254 25.76 64.9777 39.9732 64.9777ZM39.9732 59.8047C28.447 59.8047 19.231 50.5385 19.231 39.0123C19.231 27.486 28.447 18.245 39.9481 18.245C51.4743 18.245 60.7405 27.486 60.7656 39.0123C60.7907 50.5385 51.4994 59.8047 39.9732 59.8047ZM46.226 37.7818C48.8125 37.7818 50.9972 35.4464 50.9972 32.4833C50.9972 29.5703 48.8125 27.3354 46.226 27.3354C43.6144 27.3354 41.4297 29.6205 41.4297 32.4833C41.4548 35.4464 43.6144 37.7818 46.226 37.7818ZM32.4648 38.0329C34.7249 38.0329 36.6585 36.024 36.6585 33.4124C36.6585 30.9012 34.7249 28.9425 32.4648 28.9425C30.2299 28.9425 28.2963 30.9263 28.2963 33.4375C28.2963 36.024 30.2048 38.0329 32.4648 38.0329ZM25.9107 48.8309H34.8253C33.5949 47.0229 34.976 43.4319 37.6378 41.3477C36.3069 40.4939 34.6244 39.841 32.4648 39.841C27.1663 39.841 23.726 43.7584 23.726 46.9727C23.726 48.1529 24.3036 48.8309 25.9107 48.8309ZM38.793 48.8309H53.6088C55.5675 48.8309 56.2455 48.2282 56.2455 47.1233C56.2455 44.0848 52.3783 39.8912 46.226 39.8912C40.0485 39.8912 36.1562 44.0848 36.1562 47.1233C36.1562 48.2282 36.8594 48.8309 38.793 48.8309Z" fill="white"/>
</svg>
