<svg width="80" height="80" viewBox="0 0 80 80" fill="none" xmlns="http://www.w3.org/2000/svg">
<g clip-path="url(#clip0_281_2793)">
<path d="M39.8052 64.9777C54.0435 64.9777 65.7958 53.2254 65.7958 39.0123C65.7958 24.7991 54.0184 13.0469 39.7801 13.0469C25.567 13.0469 13.8398 24.7991 13.8398 39.0123C13.8398 53.2254 25.5921 64.9777 39.8052 64.9777ZM39.8052 59.8047C28.279 59.8047 19.0631 50.5385 19.0631 39.0123C19.0631 27.486 28.279 18.245 39.7801 18.245C51.3064 18.245 60.5725 27.486 60.5977 39.0123C60.6228 50.5385 51.3315 59.8047 39.8052 59.8047ZM24.8136 29.7461C24.8136 30.5748 25.4163 31.1775 26.2199 31.1775H29.9364L31.8198 44.2857C32.1211 46.2695 33.3767 47.3493 35.5865 47.3493H48.971C49.7746 47.3493 50.327 46.7969 50.327 45.9431C50.327 45.1395 49.7746 44.5871 48.971 44.5871H35.7372C35.0843 44.5871 34.6825 44.2104 34.582 43.5324L34.4565 42.6032H49.5234C51.4068 42.6032 52.3862 41.4732 52.6624 39.5898L53.5915 33.3119C53.6166 33.1613 53.6417 32.9353 53.6417 32.8348C53.6417 32.1317 53.1646 31.6546 52.3108 31.6546H32.8242L32.6233 30.1228C32.4727 29.0179 31.6189 28.2896 30.3884 28.2896H26.2199C25.4163 28.2896 24.8136 28.8923 24.8136 29.7461ZM33.8287 51.1914C33.8287 52.4721 34.8331 53.4766 36.1138 53.4766C37.3945 53.4766 38.399 52.4721 38.399 51.1914C38.399 49.9107 37.3945 48.9062 36.1138 48.9062C34.8331 48.9062 33.8287 49.9107 33.8287 51.1914ZM44.6769 51.1914C44.6769 52.4721 45.7065 53.4766 46.9621 53.4766C48.2427 53.4766 49.2472 52.4721 49.2472 51.1914C49.2472 49.9107 48.2427 48.9062 46.9621 48.9062C45.7065 48.9062 44.6769 49.9107 44.6769 51.1914Z" fill="white"/>
</g>
<defs>
<clipPath id="clip0_281_2793">
<rect width="80" height="80" fill="white"/>
</clipPath>
</defs>
</svg>
